<svg height="512" viewBox="0 0 64 64" width="512" xmlns="http://www.w3.org/2000/svg"><path d="M37.492 11.346a.997.997 0 001.414 0l2.07-2.07c.466-.466.722-1.084.722-1.742s-.256-1.276-.722-1.742a2.514 2.514 0 00-2.777-.495 2.518 2.518 0 00-2.78.496 2.47 2.47 0 00.001 3.483zm-.658-4.141c.119-.118.257-.137.329-.137s.21.019.329.137a.999.999 0 001.414 0c.119-.118.257-.137.328-.137a.467.467 0 01.464.465.465.465 0 01-.136.328l-1.363 1.363-1.364-1.362a.466.466 0 01-.001-.657zM54.42 42.703l2.07 2.07a.997.997 0 001.414 0l2.073-2.071a2.47 2.47 0 00-.001-3.483 2.516 2.516 0 00-2.779-.495c-.899-.417-2.057-.227-2.777.495-.466.466-.722 1.084-.722 1.742s.256 1.276.722 1.742zm1.415-2.071a.458.458 0 01.655.001.999.999 0 001.414 0 .467.467 0 01.657-.001.466.466 0 01.001.657l-1.365 1.363-1.363-1.363a.465.465 0 01.001-.657zM42.457 26.248l4.531 4.529a.997.997 0 001.414 0l4.533-4.531c1.628-1.636 1.629-4.302-.004-5.947a4.19 4.19 0 00-2.973-1.229c-.814 0-1.594.23-2.264.66-.67-.43-1.45-.66-2.266-.66a4.18 4.18 0 00-2.976 1.233 4.229 4.229 0 00.005 5.945zm1.414-4.533c.416-.416.97-.645 1.559-.645s1.143.229 1.559.645a1 1 0 001.414.001c.834-.833 2.288-.826 3.114-.004.856.863.856 2.265.003 3.122l-3.824 3.822-3.822-3.82a2.22 2.22 0 01-.003-3.121z"/><path d="M.377 44.475c.102.245.296.439.541.541l40.654 16.84a1 1 0 001.307-.541l5.485-13.242h14.335a1 1 0 001-1V3.068a1 1 0 00-1-1H32.695a1 1 0 00-1 1v1.921l-15.08 6.245a1.003 1.003 0 00-.541 1.307l.735 1.774L5.268 25.857a.999.999 0 000 1.414l1.357 1.357-6.248 15.08a1 1 0 000 .767zm42.293 3.597l-8.291 3.434-1.422-3.434zm.766 1.848l-6.346 6.346-2.629-2.629zm-2.022 9.705l-3.434-1.422 6.867-6.867zM61.699 4.068v42.004H47.757c-.017-.001-.033-.01-.051-.01-.023 0-.046.008-.069.01H33.695V5.683 4.068zM31.695 7.154v37.873l-13.39-32.328zm-14.057 9.161l14.495 34.993L8.521 27.697l-.013-.013-1.12-1.12zM8.155 30.159l26.784 26.784L2.607 43.551z"/><path d="M11.723 39.444c-.507-1.222-1.982-1.844-3.219-1.333l-2.707 1.121a1 1 0 00-.541 1.307l1.121 2.706a2.456 2.456 0 003.219 1.334 2.459 2.459 0 001.333-1.334c.14-.336.202-.691.188-1.044.26-.24.467-.535.605-.871a2.434 2.434 0 00.001-1.886zm-1.847 1.121a.47.47 0 01-.254.253 1.003 1.003 0 00-.54 1.308.462.462 0 01-.427.641.465.465 0 01-.431-.287l-.738-1.783 1.782-.738a.47.47 0 01.607.253.46.46 0 01.001.353zM10.926 28.684a.997.997 0 001.414 0l.708-.708.708.708a.999.999 0 101.414 1.414l1.414-1.414a.999.999 0 10-1.414-1.414l-.708-.708.706-.706a.999.999 0 10-1.414-1.414l-.706.706-.708-.708a.999.999 0 10-1.414 1.414l.708.708-.708.708a.999.999 0 000 1.414zM26.879 13.254L23.613 11.9a.997.997 0 00-1.307.541l-1.354 3.268a.997.997 0 00.542 1.307l3.268 1.352a.998.998 0 001.306-.541l1.352-3.266a1 1 0 00-.541-1.307zm-2.276 2.883l-1.419-.587.588-1.419 1.418.588z"/></svg>