<svg height="512" viewBox="0 0 64 64" width="512" xmlns="http://www.w3.org/2000/svg"><path d="M30 47c7.168 0 13-5.832 13-13s-5.832-13-13-13-13 5.832-13 13 5.832 13 13 13zm-4.331-2.891A2.982 2.982 0 0128 43h8.305A10.928 10.928 0 0130 45c-1.537 0-3.001-.319-4.331-.891zM38.479 41H30c-.552 0-1-.449-1-1v-2c0-.551.448-1 1-1h10.574a10.996 10.996 0 01-2.095 4zM41 34c0 .338-.021.67-.051 1H28c-1.654 0-3-1.346-3-3v-7.786A10.928 10.928 0 0130 23c6.065 0 11 4.935 11 11zm-18-8.479V32c0 2.486 1.829 4.538 4.209 4.92-.13.336-.209.698-.209 1.08v2c0 .376.077.732.204 1.064a4.947 4.947 0 00-3.3 2.085C20.951 41.175 19 37.812 19 34c0-3.408 1.559-6.459 4-8.479z"/><path d="M63 12V6c0-2.757-2.243-5-5-5H28c-2.757 0-5 2.243-5 5v6a5.01 5.01 0 004 4.899v.383C19.054 18.704 13 25.651 13 34c0 3.042.814 5.894 2.219 8.367L2.328 55.257A4.508 4.508 0 001 58.464 4.54 4.54 0 005.535 63a4.504 4.504 0 003.207-1.329l12.891-12.89c.443.252.9.481 1.367.693V52c0 2.757 2.243 5 5 5h30c2.757 0 5-2.243 5-5v-6c0-2.486-1.829-4.538-4.209-4.92.13-.336.209-.698.209-1.08v-2c0-.382-.079-.744-.209-1.08C61.171 36.538 63 34.486 63 32v-6c0-2.486-1.829-4.538-4.209-4.92.13-.336.209-.698.209-1.08v-2c0-.382-.079-.744-.209-1.08C61.171 16.538 63 14.486 63 12zm-34 5h27c.552 0 1 .449 1 1v2c0 .551-.448 1-1 1H40.932c-2.958-2.492-6.77-4-10.932-4-.338 0-.667.031-1 .051zm1 2c8.271 0 15 6.729 15 15s-6.729 15-15 15-15-6.729-15-15 6.729-15 15-15zm16.719 18H56c.552 0 1 .449 1 1v2c0 .551-.448 1-1 1H45.474a16.81 16.81 0 001.245-4zM7.328 60.257A2.52 2.52 0 015.535 61 2.54 2.54 0 013 58.464c0-.678.264-1.314.742-1.793L13 47.414 16.586 51zM18 49.586L14.414 46l1.925-1.925a17.122 17.122 0 003.586 3.586zM61 46v6c0 1.654-1.346 3-3 3H28c-1.654 0-3-1.346-3-3v-1.753c.65.2 1.32.35 2 .471V53h2v-2.051c.333.02.662.051 1 .051s.667-.031 1-.051V53h2v-2.281c4.798-.859 8.895-3.734 11.396-7.719H58c1.654 0 3 1.346 3 3zm0-20v6c0 1.654-1.346 3-3 3H46.949c.02-.333.051-.662.051-1 0-4.195-1.535-8.032-4.062-11H58c1.654 0 3 1.346 3 3zm0-14c0 1.654-1.346 3-3 3H28c-1.654 0-3-1.346-3-3V6c0-1.654 1.346-3 3-3h30c1.654 0 3 1.346 3 3z"/><path d="M27 25h2v8h-2zM57 25h2v8h-2zM34 33c1.654 0 3-1.346 3-3v-2c0-1.654-1.346-3-3-3s-3 1.346-3 3v2c0 1.654 1.346 3 3 3zm-1-5a1.001 1.001 0 012 0v2a1.001 1.001 0 01-2 0zM52 25c-1.654 0-3 1.346-3 3v2c0 1.654 1.346 3 3 3s3-1.346 3-3v-2c0-1.654-1.346-3-3-3zm1 5a1.001 1.001 0 01-2 0v-2a1.001 1.001 0 012 0zM57 5h2v8h-2zM53 5h2v8h-2zM34 5h-4c-1.654 0-3 1.346-3 3s1.346 3 3 3h4c1.654 0 3-1.346 3-3s-1.346-3-3-3zm0 4h-4a1.001 1.001 0 010-2h4a1.001 1.001 0 010 2zM52 45c-1.654 0-3 1.346-3 3s1.346 3 3 3h4c1.654 0 3-1.346 3-3s-1.346-3-3-3zm5 3c0 .551-.448 1-1 1h-4a1.001 1.001 0 010-2h4c.552 0 1 .449 1 1z"/></svg>