<svg xmlns="http://www.w3.org/2000/svg" width="290" height="321"><defs><linearGradient id="a" x2="1" y2="1" gradientUnits="objectBoundingBox"><stop offset="0" stop-color="#5f81f4"/><stop offset="1" stop-color="#5f81f3"/><stop offset="1" stop-color="#30417a"/></linearGradient><clipPath id="b"><path data-name="Rectangle 60" transform="translate(326 154)" fill="#fdce30" stroke="#707070" d="M0 0h77v77H0z"/></clipPath></defs><g data-name="Group 4"><path data-name="Rectangle 59" transform="translate(0 15)" fill="url(#a)" d="M0 0h290v290H0z"/><text transform="translate(81 219)" fill="#fff" font-size="209" font-family="BalooThambi-Regular, Baloo Thambi"><tspan x="0" y="0">B</tspan></text><g data-name="Mask Group 40" transform="translate(-154 -99)" clip-path="url(#b)"><g fill="#fdce30"><path data-name="Path 12" d="M400.744 207.189a17.067 17.067 0 01-12.106-4.973 16.822 16.822 0 01-5.007-12.016 2.256 2.256 0 00-4.512 0 16.822 16.822 0 01-5.007 12.021 17.067 17.067 0 01-12.106 4.973 2.256 2.256 0 000 4.512 17.1 17.1 0 0117.114 17.038 2.256 2.256 0 004.512 0 17.1 17.1 0 0117.112-17.044 2.256 2.256 0 000-4.512zm0 0"/><path data-name="Path 13" d="M356.865 189.55a12.019 12.019 0 01-12.049-11.96 2.256 2.256 0 10-4.512 0 12.019 12.019 0 01-12.048 11.96 2.256 2.256 0 000 4.512 12.037 12.037 0 0112.049 12 2.256 2.256 0 104.512 0 12.037 12.037 0 0112.049-12 2.256 2.256 0 100-4.512zm0 0"/><path data-name="Path 14" d="M360.535 169.589a8.838 8.838 0 018.865 8.793 2.256 2.256 0 104.512 0 8.851 8.851 0 018.861-8.821 2.256 2.256 0 000-4.512 8.838 8.838 0 01-8.861-8.793 2.256 2.256 0 00-4.512 0 8.851 8.851 0 01-8.861 8.821 2.256 2.256 0 000 4.512zm0 0"/></g></g></g></svg>