<svg xmlns="http://www.w3.org/2000/svg" width="358" height="375"><defs><clipPath id="a"><path data-name="Rectangle 107" transform="translate(.292 .5)" fill="#fff" stroke="#707070" d="M0 0h358v358H0z"/></clipPath><clipPath id="b"><path data-name="Rectangle 105" transform="translate(-.082 -.309)" fill="#fff" stroke="#707070" d="M0 0h271v272H0z"/></clipPath></defs><g data-name="Group 27"><g data-name="Mask Group 62" transform="translate(-.292 -.5)" opacity=".3" clip-path="url(#a)"><path data-name="Path 194" d="M313.656 77.029c17.168 22.742 12.932 61.426 9.141 108.917-3.9 47.6-7.358 104.012-43.032 138.348-35.673 34.451-103.565 46.826-137.901 18.955-34.225-27.759-35.005-95.874-57.413-166.776-22.3-70.9-66.331-144.591-47.491-167.667s100.552 4.571 160.644 21.623c60.2 17.173 98.772 23.973 116.052 46.6z" fill="#5f81f4"/></g><g data-name="Mask Group 61" transform="translate(69.082 103.309)" clip-path="url(#b)"><g transform="translate(0 7.908)"><path data-name="Path 160" d="M196.886 144.919v70.547l11.8 19.23.9 1.463h46.558l.941-91.235z" fill="#e6e6e6"/><path data-name="Path 161" d="M196.886 144.919v70.547l11.8 19.23.724-89.772z" opacity=".1"/><path data-name="Path 162" d="M84.487 143.038v70.543l-11.8 19.23-.9 1.462H25.232l-.941-91.235z" fill="#e6e6e6"/><path data-name="Path 163" d="M84.488 143.038v70.543l-11.8 19.23-.724-89.773z" opacity=".1"/><path data-name="Path 164" d="M271.191 141.628v4.232H18.177v-6.114l23.514-12.227h208.807z" fill="#e6e6e6"/><path data-name="Path 165" d="M271.191 141.628v4.232H18.177v-6.114z" opacity=".1"/><path data-name="Path 166" d="M54.389 162.791H43.104l-4.7-3.291h21.158z" fill="#3f3d56"/><path data-name="Path 167" d="M54.389 176.428H43.104l-4.7-3.294h21.158z" fill="#3f3d56"/><path data-name="Path 168" d="M54.389 195.71H43.104l-4.7-3.292h21.158z" fill="#3f3d56"/><path data-name="Path 169" d="M54.389 214.991H43.104l-4.7-3.292h21.158z" fill="#3f3d56"/><path data-name="Path 170" d="M226.984 164.672h11.287l4.7-3.292h-21.16z" fill="#3f3d56"/><path data-name="Path 171" d="M226.984 178.309h11.287l4.7-3.292h-21.16z" fill="#3f3d56"/><path data-name="Path 172" d="M226.984 197.591h11.287l4.7-3.292h-21.16z" fill="#3f3d56"/><path data-name="Path 173" d="M226.984 216.874h11.287l4.7-3.292h-21.16z" fill="#3f3d56"/><path data-name="Path 174" d="M234.665 45.943h-95.02a3.593 3.593 0 00-3.594 3.594v64.007a3.593 3.593 0 003.594 3.594h36.07l-1.351 8.628s-7.723 4.1-2.293 4.223 31.012 0 31.012 0 4.947 0-2.9-4.344l-1.271-8.507h35.753a3.593 3.593 0 003.594-3.594V49.537a3.593 3.593 0 00-3.594-3.594z" fill="#3f3d56"/><path data-name="Rectangle 106" fill="#f2f2f2" d="M139.496 49.744h95.329v53.336h-95.329z"/><circle data-name="Ellipse 9" cx=".603" cy=".603" r=".603" transform="translate(186.557 47.452)" fill="#f2f2f2"/><circle data-name="Ellipse 10" cx="2.293" cy="2.293" r="2.293" transform="translate(184.868 109.958)" fill="#f2f2f2"/><path data-name="Path 175" d="M183.587 136.505v1.206h-64.92v-.966l.089-.241 1.6-4.344h61.9z" fill="#3f3d56"/><path data-name="Path 176" d="M208.571 135.324c-.118.506-.565 1.039-1.574 1.543-3.62 1.81-10.981-.483-10.981-.483s-5.671-.965-5.671-3.5a4.527 4.527 0 01.5-.3c1.522-.805 6.568-2.792 15.516.084a3.732 3.732 0 011.7 1.115 1.78 1.78 0 01.512 1.536z" fill="#3f3d56"/><path data-name="Path 177" d="M208.571 135.324c-4.431 1.7-8.38 1.825-12.434-.991a8.9 8.9 0 00-5.295-1.744c1.522-.805 6.568-2.792 15.516.084a3.732 3.732 0 011.7 1.115 1.78 1.78 0 01.512 1.536z" opacity=".1"/><ellipse data-name="Ellipse 11" cx="1.569" cy=".483" rx="1.569" ry=".483" transform="translate(201.447 133.368)" fill="#f2f2f2"/><path data-name="Path 178" d="M183.587 136.505v1.207h-64.92v-.966l.089-.241z" opacity=".1"/><path data-name="Path 179" d="M36.096.011a3.262 3.262 0 00-1.892.423 4.935 4.935 0 00-1.28 1.689 20.2 20.2 0 01-5.5 6.217c-1.635 1.2-3.715 2.692-3.435 4.9a6.624 6.624 0 00.8 2.069c1.509 3.046 5.626 5.4 5.221 8.875 1.5-2.509-.506-3.75.993-6.26.714-1.2 1.954-2.544 3.032-1.794.361.251.6.7.974.922.9.526 1.85-.48 2.644-1.192 2.737-2.457 6.628-1.813 10.034-1.048 1.608.361 3.374.835 4.324 2.372 1.25 2.02-1.187 4.2-1.8 6.486a1.245 1.245 0 001.327 1.551c1.022-.1 2.232-.183 2.293-.632 1.286.046 2.861-.1 3.412-1.439a5.63 5.63 0 00.264-1.637c.2-2.249 1.157-4.3 1.789-6.44s.907-4.648-.16-6.546a7.574 7.574 0 00-1.4-1.7C51.682.968 43.721.002 36.096.011z" fill="#2f2e41"/><path data-name="Path 180" d="M31.317 28.574s1.317 10.974-3.512 11.852 4.39 15.8 4.39 15.8l21.948 2.634-5.267-17.558s-3.512-1.317-1.317-10.1-16.242-2.628-16.242-2.628z" fill="#ffb8b8"/><path data-name="Path 181" d="M17.932 217.108l1.756 24.143h9.218l-2.633-24.143z" fill="#ffb8b8"/><path data-name="Path 182" d="M85.532 171.453l1.317 20.192 10.1-4.389-3.951-16.68z" fill="#ffb8b8"/><path data-name="Path 183" d="M11.349 124.924s.439 25.459 3.073 33.8 2.195 8.779 1.756 10.1-.878.439-.878 2.634-.878 36.872 0 39.945-2.634 8.34 0 8.779 14.924 0 15.363-2.634-3.512-3.512-1.756-5.267 4.39-37.75 4.39-37.75l6.145-25.02 11.413-13.169h24.142l7.462 28.971s-3.073 8.34-.878 8.34 15.363 2.634 15.363-7.023-4.39-38.189-5.267-39.067.439-3.951-.878-5.267-16.68-10.535-22.387-12.291-13.711-3.846-13.711-3.846z" fill="#2f2e41"/><path data-name="Path 184" d="M96.944 183.744s-6.584-2.195-9.657 4.39-1.756 8.34-1.756 8.34 10.1 3.512 11.852 1.756c.764-.764 3.19-1.029 5.687-1.085 3.8-.085 4.815-5.466 1.223-6.718q-.161-.056-.325-.1c-3.512-.877-7.024-6.583-7.024-6.583z" fill="#2f2e41"/><circle data-name="Ellipse 12" cx="13.169" cy="13.169" r="13.169" transform="translate(28.029 9.479)" fill="#ffb8b8"/><path data-name="Path 185" d="M24.078 45.912s21.509 4.39 26.776-2.634 7.462 19.755 7.462 19.755l2.634 28.093-3.951 15.363s-20.631 16.68-27.215 18-16.68 2.195-16.68 2.195 3.073-48.724 3.073-49.6 7.901-31.172 7.901-31.172z" fill="#5f81f4"/><path data-name="Path 186" d="M30.62 37.68s-4.785-2.741-6.1-.108S10.905 46.79 9.593 46.79s2.634 36.433.878 40.823-10.096 36.432-5.266 39.066 1.317-2.634 6.145 3.951 28.532 6.584 29.849 3.951-10.535-22.387-8.34-40.823 5.706-43.9 2.634-47.407a30.537 30.537 0 01-4.873-8.671z" fill="#2f2e41"/><path data-name="Path 187" d="M46.465 40.645l.611-2.1S65.34 44.6 66.217 48.55s.439 31.6-2.634 33.8-7.462 5.706-4.39 10.974 6.584 10.974 9.218 11.413 7.462 3.512 6.145 6.584-17.119-2.634-17.119-2.634-10.535-7.9-10.1-20.192-.872-47.85-.872-47.85z" fill="#2f2e41"/><path data-name="Path 188" d="M61.828 92.441l-10.535 19.753s-15.363 15.8-6.584 17.558 13.608-14.485 13.608-14.485L69.73 99.026z" fill="#ffb8b8"/><path data-name="Path 189" d="M36.737 3.456a2.989 2.989 0 00-1.54.3 3.59 3.59 0 00-1.038 1.191 15.166 15.166 0 01-4.484 4.4c-1.331.847-3.024 1.9-2.8 3.464a4.332 4.332 0 00.649 1.462 11.5 11.5 0 011.4 7.169l3.661-5.321c.581-.845 1.591-1.8 2.468-1.268.294.178.487.5.793.652.73.372 1.506-.339 2.152-.843 2.228-1.736 5.4-1.281 8.168-.74 1.309.255 2.746.591 3.52 1.677 1.286 1.8-.057 4.413.694 6.5a1.915 1.915 0 00.793-1.265c1.047.032 2.329-.071 2.777-1.017a3.5 3.5 0 00.215-1.157 21.4 21.4 0 011.456-4.552 5.4 5.4 0 00-.13-4.627 5.6 5.6 0 00-1.138-1.2c-4.928-4.148-11.409-4.834-17.616-4.825z" fill="#2f2e41"/><path data-name="Path 190" d="M61.828 46.79l4.09 1.086s9.518 24.374 7.323 41.054-3.512 13.169-3.512 13.169-3.512-7.9-11.413-6.145z" fill="#2f2e41"/><path data-name="Path 191" d="M18.541 238.055c-1.059 1.438-.846 3.495-1.784 5.015-.813 1.318-2.345 2.008-3.361 3.176a8.514 8.514 0 00-.864 1.243c-.943 1.58-1.71 3.6-.781 5.192.747 1.278 2.318 1.777 3.758 2.117a13.79 13.79 0 005.553.446 5.531 5.531 0 004.3-3.208 12.391 12.391 0 01.46-1.3c1-1.965 4.129-1.986 5.15-3.939.715-1.367.058-3.019-.6-4.414l-2.006-4.262c-.666-1.414-3.365-.6-4.772-.94-1.836-.439-3.733-.926-5.053.874z" fill="#2f2e41"/><path data-name="Path 192" d="M3.886 101.22l18.436 28.532s11.413 14.485 14.924 7.9-12.288-17.557-12.288-17.557l-11.854-21.95z" fill="#ffb8b8"/><path data-name="Path 193" d="M13.104 47.668l-3.512-.878S2.569 48.985.813 58.203s-.439 46.09 1.756 46.529 10.84-6.42 12.224-4.966-3.006-6.008-1.689-9.958 0-42.14 0-42.14z" fill="#2f2e41"/><g data-name="Group 13" fill="#5f81f4"><path data-name="Rectangle 55" d="M166.793 67.262h11.345v2.731h-11.345z"/><path data-name="Rectangle 56" d="M213.434 67.262h3.992v2.731h-3.992z"/><path data-name="Rectangle 57" d="M221.418 67.262h3.992v2.731h-3.992z"/><path data-name="Rectangle 58" d="M182.13 67.262h27.102v2.731H182.13z"/><path data-name="Rectangle 59" d="M152.506 84.91h11.345v2.731h-11.345z"/><path data-name="Rectangle 60" d="M199.147 84.91h3.992v2.731h-3.992z"/><path data-name="Rectangle 61" d="M207.131 84.91h3.992v2.731h-3.992z"/><path data-name="Rectangle 62" d="M167.843 84.91h27.102v2.731h-27.102z"/><path data-name="Rectangle 63" d="M199.357 73.355h11.345v2.731h-11.345z"/><path data-name="Rectangle 64" d="M214.694 73.355h11.345v2.731h-11.345z"/><path data-name="Rectangle 66" d="M152.506 73.355h3.992v2.731h-3.992z"/><path data-name="Rectangle 67" d="M160.49 73.355h3.992v2.731h-3.992z"/><path data-name="Rectangle 68" d="M168.473 73.355h27.102v2.731h-27.102z"/><path data-name="Rectangle 69" d="M175.827 79.237h11.345v2.731h-11.345z"/><path data-name="Rectangle 70" d="M160.49 79.237h11.345v2.731H160.49z"/><path data-name="Rectangle 71" d="M152.506 79.237h3.992v2.731h-3.992z"/><path data-name="Rectangle 73" d="M222.048 79.237h3.992v2.731h-3.992z"/><path data-name="Rectangle 74" d="M190.954 79.237h27.102v2.731h-27.102z"/></g></g></g></g></svg>